<svg width="132" height="132" viewBox="0 0 132 132" fill="none" xmlns="http://www.w3.org/2000/svg" role="img"
  aria-hidden="true">
  <style>
    /* Default (fallback) color for UAs without media query support */
    :root {
      color: #111827;
    }

    /* dark text on light bg */

    /* Light theme: use a darker icon (adjust to 'light' icon color if you want the opposite) */
    @media (prefers-color-scheme: light) {
      :root {
        color: #111827;
      }

      /* dark/visible on light backgrounds */
    }

    /* Dark theme: use a light icon */
    @media (prefers-color-scheme: dark) {
      :root {
        color: #f9fafb;
      }

      /* light/visible on dark backgrounds */
    }

    /* Ensure all shape fills follow currentColor */
    path {
      fill: currentColor;
    }
  </style>

  <path
    d="M54 114.036H54.1L57.5 113.936C59 113.836 60.2 112.736 60.4 111.336C60.8 107.936 61.1 104.536 61.1 101.036C61.1 74.6361 47.5 49.7361 25.3 35.4361C27.7 33.1361 30.4 31.2361 33.2 29.6361C33.3 29.7361 33.5 29.7361 33.6 29.8361C56.6 42.4361 71 66.7361 71 93.0361V101.636C71 108.536 76.6 114.036 83.4 114.036C87.9 114.036 92.1 111.536 94.3 107.636L94.4 107.536C95.5 105.436 97.7 104.236 100 104.236C102.4 104.236 104.5 105.436 105.6 107.536L105.7 107.636C107.9 111.636 112.1 114.036 116.6 114.036H118C119.7 114.036 121 112.736 121 111.036C121 109.336 119.7 108.036 118 108.036H116.6C114.3 108.036 112.1 106.736 111 104.736L110.9 104.636C108.7 100.636 104.6 98.2361 100 98.2361C95.4 98.2361 91.3 100.636 89.1 104.636L89 104.736C87.9 106.836 85.7 108.036 83.4 108.036C79.9 108.036 77 105.136 77 101.636V93.0361C77 65.8361 62.8 40.6361 39.7 26.5361C43.2 25.2361 47 24.4361 50.8 24.1361C72.5 37.1361 86 60.8361 86 86.1361C86 88.7361 87.7 90.8361 90.1 91.4361C92.6 92.0361 95.1 90.9361 96.3 88.7361C100.5 80.9361 102.4 72.1361 101.9 63.1361C100.5 38.8361 80.3 19.0361 55.9 18.0361C42.7 17.5361 30.2 22.2361 20.7 31.4361C11.2 40.5361 6 52.8361 6 66.0361C6 92.5361 27.5 114.036 54 114.036ZM95.9 63.5361C96.3 70.6361 95 77.7361 91.9 84.0361C91.3 60.9361 80.3 39.2361 62.4 24.9361C80.6 28.6361 94.8 44.5361 95.9 63.5361ZM21.1 39.9361C34.3 48.1361 44.3 60.4361 49.9 74.5361C40.7 70.9361 32.2 65.4361 25.1 58.3361C22.1 55.3361 19.3 52.0361 16.9 48.5361C16.7 48.2361 16.5 48.0361 16.2 47.8361C17.5 45.0361 19.1 42.3361 21.1 39.9361ZM13.7 54.3361C15.9 57.2361 18.3 60.0361 20.9 62.6361C29.7 71.4361 40.6 78.0361 52.4 81.8361C53.4 85.5361 54.2 89.4361 54.6 93.3361C41.3 90.3361 29.2 83.7361 19.5 74.0361C17.9 72.4361 16.4 70.8361 15 69.1361L12 65.0361C12.1 61.3361 12.7 57.7361 13.7 54.3361ZM15.2 78.1361C26.1 89.0361 39.9 96.4361 55 99.4361C55 99.9361 55 100.536 55 101.036C55 103.336 54.9 105.736 54.7 108.036H54C34.3 108.036 17.8 94.4361 13.3 76.1361C13.9 76.7361 14.5 77.4361 15.2 78.1361Z" />
  <path
    d="M129 114.036C130.657 114.036 132 112.693 132 111.036C132 109.379 130.657 108.036 129 108.036C127.343 108.036 126 109.379 126 111.036C126 112.693 127.343 114.036 129 114.036Z" />
</svg>